<mxfile host="app.diagrams.net" agent="Mozilla/5.0 (Windows NT 10.0; Win64; x64) AppleWebKit/537.36 (KHTML, like Gecko) Chrome/128.0.0.0 Safari/537.36" version="24.7.7">
  <diagram name="Page-1" id="SKHF6rdCnMtcOxrQsZqE">
    <mxGraphModel dx="794" dy="384" grid="1" gridSize="10" guides="1" tooltips="1" connect="1" arrows="1" fold="1" page="1" pageScale="1" pageWidth="850" pageHeight="1100" math="0" shadow="0">
      <root>
        <mxCell id="0" />
        <mxCell id="1" parent="0" />
        <mxCell id="Q-xwbj9so2HIfninM1eo-1" style="rounded=0;orthogonalLoop=1;jettySize=auto;html=1;exitX=0.5;exitY=0.5;exitDx=0;exitDy=0;exitPerimeter=0;entryX=0;entryY=0.5;entryDx=0;entryDy=0;labelBackgroundColor=none;fontColor=default;" edge="1" parent="1" source="Q-xwbj9so2HIfninM1eo-5" target="Q-xwbj9so2HIfninM1eo-7">
          <mxGeometry relative="1" as="geometry" />
        </mxCell>
        <mxCell id="Q-xwbj9so2HIfninM1eo-2" style="rounded=0;orthogonalLoop=1;jettySize=auto;html=1;exitX=0.5;exitY=0.5;exitDx=0;exitDy=0;exitPerimeter=0;entryX=0;entryY=0.5;entryDx=0;entryDy=0;labelBackgroundColor=none;fontColor=default;" edge="1" parent="1" source="Q-xwbj9so2HIfninM1eo-5" target="Q-xwbj9so2HIfninM1eo-8">
          <mxGeometry relative="1" as="geometry" />
        </mxCell>
        <mxCell id="Q-xwbj9so2HIfninM1eo-3" style="rounded=0;orthogonalLoop=1;jettySize=auto;html=1;exitX=0.5;exitY=0.5;exitDx=0;exitDy=0;exitPerimeter=0;entryX=0;entryY=0.5;entryDx=0;entryDy=0;labelBackgroundColor=none;fontColor=default;" edge="1" parent="1" source="Q-xwbj9so2HIfninM1eo-5" target="Q-xwbj9so2HIfninM1eo-9">
          <mxGeometry relative="1" as="geometry" />
        </mxCell>
        <mxCell id="Q-xwbj9so2HIfninM1eo-4" style="rounded=0;orthogonalLoop=1;jettySize=auto;html=1;exitX=0.5;exitY=0.5;exitDx=0;exitDy=0;exitPerimeter=0;entryX=0;entryY=0.5;entryDx=0;entryDy=0;labelBackgroundColor=none;fontColor=default;" edge="1" parent="1" source="Q-xwbj9so2HIfninM1eo-5" target="Q-xwbj9so2HIfninM1eo-10">
          <mxGeometry relative="1" as="geometry" />
        </mxCell>
        <mxCell id="Q-xwbj9so2HIfninM1eo-15" style="rounded=0;orthogonalLoop=1;jettySize=auto;html=1;exitX=0.5;exitY=0.5;exitDx=0;exitDy=0;exitPerimeter=0;entryX=0;entryY=0.5;entryDx=0;entryDy=0;labelBackgroundColor=none;fontColor=default;" edge="1" parent="1" source="Q-xwbj9so2HIfninM1eo-5" target="Q-xwbj9so2HIfninM1eo-13">
          <mxGeometry relative="1" as="geometry" />
        </mxCell>
        <mxCell id="Q-xwbj9so2HIfninM1eo-16" style="rounded=0;orthogonalLoop=1;jettySize=auto;html=1;exitX=0.5;exitY=0.5;exitDx=0;exitDy=0;exitPerimeter=0;entryX=0;entryY=0.5;entryDx=0;entryDy=0;labelBackgroundColor=none;fontColor=default;" edge="1" parent="1" source="Q-xwbj9so2HIfninM1eo-5" target="Q-xwbj9so2HIfninM1eo-14">
          <mxGeometry relative="1" as="geometry" />
        </mxCell>
        <mxCell id="Q-xwbj9so2HIfninM1eo-5" value="Admin" style="shape=umlActor;verticalLabelPosition=bottom;verticalAlign=top;html=1;outlineConnect=0;labelBackgroundColor=none;" vertex="1" parent="1">
          <mxGeometry x="60" y="310" width="30" height="60" as="geometry" />
        </mxCell>
        <mxCell id="Q-xwbj9so2HIfninM1eo-6" value="" style="rounded=1;whiteSpace=wrap;html=1;fillColor=none;labelBackgroundColor=none;" vertex="1" parent="1">
          <mxGeometry x="260" y="50" width="210" height="470" as="geometry" />
        </mxCell>
        <mxCell id="Q-xwbj9so2HIfninM1eo-7" value="Manage Users" style="rounded=1;whiteSpace=wrap;html=1;labelBackgroundColor=none;" vertex="1" parent="1">
          <mxGeometry x="300" y="110" width="120" height="40" as="geometry" />
        </mxCell>
        <mxCell id="Q-xwbj9so2HIfninM1eo-8" value="Manage Patients" style="rounded=1;whiteSpace=wrap;html=1;labelBackgroundColor=none;" vertex="1" parent="1">
          <mxGeometry x="304" y="180" width="120" height="40" as="geometry" />
        </mxCell>
        <mxCell id="Q-xwbj9so2HIfninM1eo-9" value="Manage Inventory" style="rounded=1;whiteSpace=wrap;html=1;labelBackgroundColor=none;" vertex="1" parent="1">
          <mxGeometry x="304" y="250" width="120" height="40" as="geometry" />
        </mxCell>
        <mxCell id="Q-xwbj9so2HIfninM1eo-10" value="Manage Doctor" style="rounded=1;whiteSpace=wrap;html=1;labelBackgroundColor=none;" vertex="1" parent="1">
          <mxGeometry x="304" y="320" width="120" height="40" as="geometry" />
        </mxCell>
        <mxCell id="Q-xwbj9so2HIfninM1eo-11" value="Clinic Management System" style="rounded=1;whiteSpace=wrap;html=1;dashed=1;arcSize=50;labelBackgroundColor=none;" vertex="1" parent="1">
          <mxGeometry x="284" y="60" width="160" height="30" as="geometry" />
        </mxCell>
        <mxCell id="Q-xwbj9so2HIfninM1eo-13" value="Send Message" style="rounded=1;whiteSpace=wrap;html=1;labelBackgroundColor=none;" vertex="1" parent="1">
          <mxGeometry x="300" y="390" width="120" height="40" as="geometry" />
        </mxCell>
        <mxCell id="Q-xwbj9so2HIfninM1eo-14" value="Receive Message" style="rounded=1;whiteSpace=wrap;html=1;labelBackgroundColor=none;" vertex="1" parent="1">
          <mxGeometry x="304" y="460" width="120" height="40" as="geometry" />
        </mxCell>
      </root>
    </mxGraphModel>
  </diagram>
</mxfile>
